<svg id="Capa_1" enable-background="new 0 0 512 512" height="512" viewBox="0 0 512 512" width="512" xmlns="http://www.w3.org/2000/svg"><g><g><path d="m449.416 119.966 26.815 9.207c13.523 4.643 20.928 19.175 16.735 32.844l-8.313 27.106c-2.397 7.817-1.053 16.303 3.642 22.996l16.283 23.21c8.211 11.705 5.66 27.814-5.767 36.408l-22.658 17.043c-6.534 4.915-10.435 12.57-10.57 20.745l-.47 28.348c-.237 14.296-11.769 25.829-26.065 26.065l-28.348.47c-8.175.135-15.831 4.036-20.745 10.57l-17.043 22.658c-8.595 11.427-24.703 13.978-36.408 5.767l-23.21-16.283c-6.694-4.696-15.179-6.04-22.996-3.642l-27.106 8.313c-13.67 4.193-28.201-3.212-32.844-16.735l-9.207-26.815c-2.655-7.733-8.73-13.809-16.464-16.464l-26.815-9.207c-13.523-4.643-20.928-19.175-16.735-32.844l8.313-27.106c2.397-7.817 1.053-16.303-3.642-22.996l-16.283-23.21c-8.212-11.705-5.66-27.814 5.767-36.408l22.658-17.043c6.534-4.915 10.435-12.57 10.57-20.745l.47-28.348c.237-14.296 11.769-25.829 26.065-26.065l28.348-.47c8.175-.135 15.831-4.036 20.745-10.57l17.043-22.658c8.595-11.427 24.703-13.978 36.408-5.767l23.21 16.283c6.694 4.696 15.179 6.04 22.996 3.642l27.106-8.313c13.67-4.193 28.201 3.212 32.844 16.735l9.207 26.815c2.655 7.734 8.73 13.809 16.464 16.464z" fill="#ffc751"/><path d="m362.3 78.538c-1.812-5.044-6.222-8.588-11.478-9.633-3.558-.707-6.978-2.145-10.03-4.282l-23.2-16.285c-11.703-8.209-27.818-5.657-36.416 5.77l-17.041 22.656c-2.255 3.003-5.093 5.449-8.294 7.229-4.667 2.596-7.679 7.392-7.628 12.733l.002.224c.112 11.634 12.699 18.74 22.8 12.967 6.565-3.752 12.388-8.851 17.098-15.114l15.012-19.962 20.45 14.34c6.73 4.723 14.225 7.847 22.017 9.305 11.334 2.122 20.607-9.096 16.708-19.948z" fill="#ffe059"/><path d="m439.052 363.942-28.355.467c-8.167.134-15.832 4.037-20.739 10.571l-17.041 22.656c-8.598 11.427-24.713 13.979-36.416 5.77l-23.2-16.285c-6.703-4.695-15.189-6.039-23.002-3.642l-27.111 8.316c-13.668 4.193-28.199-3.21-32.845-16.737l-9.206-26.814c-2.645-7.736-8.726-13.817-16.461-16.461l-26.814-9.206c-13.527-4.646-20.93-19.177-16.737-32.845l5.798-18.894c6.781 10.5 14.771 20.457 23.971 29.656 70.046 70.046 183.614 70.053 253.66.007 23.893-23.893 39.633-52.842 47.221-83.41l12.806 18.236c8.209 11.703 5.657 27.818-5.77 36.416l-22.656 17.041c-6.534 4.907-10.437 12.572-10.571 20.739l-.467 28.355c-.242 14.297-11.767 25.823-26.065 26.064z" fill="#ffaf40"/><circle cx="327.046" cy="225.872" fill="#fff370" r="117.987"/><path d="m410.476 309.302c-46.077 46.077-120.783 46.077-166.86 0-21.62-21.62-33.094-49.528-34.423-77.837 5.433 12.415 13.236 24.037 23.389 34.189 43.748 43.748 114.662 43.747 158.403.007 31.112-31.112 40.096-75.981 26.947-115.029 38.468 46.344 35.985 115.229-7.456 158.67z" fill="#ffe059"/><path d="m226.062 216.249c6.541.021 12.229-4.476 13.711-10.847 3.664-15.746 11.617-30.686 23.867-42.936 30.789-30.789 78.572-34.46 113.42-11.023 5.589 3.759 13.044 3.077 17.807-1.685l.184-.184c6.209-6.209 5.297-16.586-1.975-21.507-45.897-31.06-108.816-26.27-149.461 14.374-16.19 16.19-26.686 35.915-31.497 56.69-2.025 8.744 4.683 17.087 13.658 17.116.096.002.191.002.286.002z" fill="#fff7c7"/><circle cx="218.786" cy="107.176" fill="#ffe059" r="19.329"/></g><g><path d="m489.676 338.351c-15.043-15.043-34.808-22.471-54.524-22.309-14.837-26.424-42.182-44.879-74.014-47.33-21.64-52.734-73.489-89.878-134.021-89.878-65.614 0-121.025 43.64-138.819 103.476-49.19 2.519-88.298 43.2-88.298 93.016 0 51.441 41.701 93.141 93.142 93.141 22.334 0 42.829-7.864 58.875-20.97 21.897 13.307 47.604 20.97 75.1 20.97 30.357 0 58.528-9.348 81.805-25.312 13.332 7.364 28.658 11.56 44.965 11.56 11.006 0 21.563-1.914 31.364-5.419 29.933 26.56 75.754 25.517 104.425-3.153 29.766-29.766 29.766-78.026 0-107.792z" fill="#b6f0ff"/><path d="m489.678 446.147c-28.67 28.67-74.49 29.711-104.429 3.153-9.803 3.496-20.355 5.411-31.365 5.411-16.307 0-31.626-4.194-44.967-11.551-23.269 15.964-51.439 25.309-81.806 25.309-27.494 0-53.198-7.67-75.093-20.969-16.047 13.102-36.548 20.969-58.88 20.969-51.439 0-93.138-41.699-93.138-93.138 0-37.359 21.999-69.588 53.75-84.428 4.808 35.902 23.019 70.046 53.656 94.304 51.45 40.71 121.985 40.887 173.071 5.006 40.138 28.545 96.052 20.917 126.97-18.138 15.88-20.074 22.166-44.654 19.523-68.225 3.039 3.829 5.776 7.909 8.18 12.196 19.72-.166 39.482 7.264 54.53 22.301 29.761 29.772 29.761 78.027-.002 107.8z" fill="#73e1ff"/><path d="m489.678 446.147c-28.67 28.67-74.49 29.711-104.429 3.153-9.803 3.496-20.355 5.411-31.365 5.411-16.307 0-31.626-4.194-44.967-11.551-23.269 15.964-51.439 25.309-81.806 25.309-27.494 0-53.198-7.67-75.093-20.969-16.047 13.102-36.548 20.969-58.88 20.969-41.418 0-76.519-27.036-88.622-64.416 16.952 23.029 44.259 37.963 75.041 37.963 22.332 0 42.833-7.867 58.88-20.969 21.895 13.3 47.599 20.969 75.093 20.969 30.366 0 58.537-9.345 81.806-25.309 13.341 7.357 28.66 11.551 44.966 11.551 11.01 0 21.562-1.915 31.365-5.411 29.939 26.557 75.759 25.517 104.429-3.153 20.251-20.261 26.724-49.077 19.408-74.802 23.791 29.929 21.845 73.573-5.826 101.255z" fill="#5cceff"/><g fill="#dcfeff"><path d="m398.87 302.993c.074-.074.148-.149.222-.223 7.389-7.421 5.483-20.014-3.896-24.673-12.446-6.183-26.47-9.662-41.313-9.662-41.44 0-76.552 27.064-88.639 64.48-3.24 10.029 4.162 20.319 14.702 20.319h.314c6.769 0 12.665-4.427 14.768-10.861 8.097-24.772 31.412-42.719 58.855-42.719 9.826 0 19.119 2.307 27.375 6.402 5.879 2.917 12.982 1.588 17.612-3.063z"/><path d="m207.789 180.125c-62.404 8.321-112.245 56.38-123.229 117.907-1.7 9.523 5.726 18.242 15.4 18.242 7.591 0 14.027-5.47 15.381-12.939 8.706-48.013 47.691-85.612 96.398-92.233 7.721-1.05 13.534-7.539 13.534-15.331v-.311c-.001-9.343-8.226-16.57-17.484-15.335z"/></g></g></g></svg>